<svg id="Layer_1" data-name="Layer 1" xmlns="http://www.w3.org/2000/svg" xmlns:xlink="http://www.w3.org/1999/xlink" viewBox="0 0 249.33 271.33"><defs><style>.cls-1{fill:none;}.cls-2{fill:#fff;}.cls-3,.cls-5{fill:#919396;}.cls-3{opacity:0.3;}.cls-4{clip-path:url(#clip-path);}.cls-5{opacity:0.2;}.cls-6{fill:#f24a18;}.cls-7{fill:#341a37;}</style><clipPath id="clip-path"><path class="cls-1" d="M194.33,74.23V67.94a45.09,45.09,0,0,1-4.46-3.47c0-1.26,0-2.49,0-3.68,0.88-20.56-7.53-36.76-24.34-46.87a6,6,0,0,0-3.1-.86,6.09,6.09,0,0,0-4.34,1.84,6,6,0,0,0-1.7,4.38c0,1.06.16,2.18,0.3,3.48a41.43,41.43,0,0,1-.25,13.67c-0.23,1.11-.54,2.33-0.87,3.61-0.53,2.06-1.13,4.41-1.6,7.13l-1.61-.42c-0.37-.31-0.63-0.49-0.73-0.57a5,5,0,0,0-1.7-.77c-3.8-6.26-8.36-7.68-9.34-7.92a5,5,0,0,0-6,6.13l0,0.16-1.49-.11c-1.87-1.69-3.51-3-4.3-3.58l-0.35-.27a5,5,0,0,0-6.39,0l-0.31.24c-0.78.62-2.42,1.9-4.31,3.63l-1.25.1,0-.18a5,5,0,0,0-6-6.13c-1,.24-5.53,1.66-9.31,7.93a5,5,0,0,0-1.31.54,10.89,10.89,0,0,0-1.23.86l-1.44.38c-0.47-2.73-1.07-5.1-1.6-7.16-0.33-1.29-.64-2.5-0.87-3.61a41.39,41.39,0,0,1-.24-13.66c0.15-1.3.27-2.43,0.3-3.49a6,6,0,0,0-1.7-4.38,6.08,6.08,0,0,0-4.34-1.84,6,6,0,0,0-3.1.86C68.58,24,60.17,40.23,61.05,60.79,61,62,61,63.26,61,64.54c-1.59,1.17-3.67,2.39-4.67,3.63v6.31c-22,19-34.8,46.76-34.8,77.62a104,104,0,1,0,207.91,0C229.44,121.11,215.33,93.28,194.33,74.23ZM162.41,18.06l0.17,0-0.17,0h0Zm-73.92,0h0l-0.17,0Z"/></clipPath></defs><title>logo-RentLlama-icon</title><path class="cls-2" d="M185.13,66.94a43.57,43.57,0,0,0,.11-6.13c0.69-14.78-3.56-31.57-21.91-42.6a1,1,0,0,0-1.57.92c0.1,3.47,1.69,9.86,0,18.31-0.89,4.34-2.7,9.22-3.09,16.24q-4.08-1.35-8.29-2.37a11.83,11.83,0,0,0-1.2-1c0.12,0.28.23,0.55,0.33,0.82l-2.07-.45c-3.19-7.22-7.61-8.29-7.61-8.29A37.5,37.5,0,0,1,141,49.51q-4.73-.69-9.59-1a70.12,70.12,0,0,0-5.75-4.88,67.46,67.46,0,0,0-5.69,4.9q-4.76.27-9.4,1a38.1,38.1,0,0,1,1.23-7.18s-4.41,1.08-7.59,8.33l-2,.45c0.11-.28.22-0.56,0.35-0.86a9.22,9.22,0,0,0-1.4,1.11q-4.11,1-8.08,2.32c-0.39-7-2.19-11.93-3.09-16.28-1.74-8.45-.14-14.84,0-18.31a1,1,0,0,0-1.57-.92C70,29.24,65.76,46,66.45,60.81a43.59,43.59,0,0,0,.11,6.2A104,104,0,1,0,185.13,66.94Z"/><path class="cls-3" d="M162.8,18.06a1,1,0,0,1,.52.15c18.35,11,22.6,27.83,21.91,42.6a43.57,43.57,0,0,1-.11,6.13A104,104,0,1,1,66.56,67a43.58,43.58,0,0,1-.11-6.2C65.76,46,70,29.24,88.36,18.21a1,1,0,0,1,.52-0.15,1,1,0,0,1,1,1.07c-0.1,3.47-1.7,9.86,0,18.31,0.89,4.34,2.7,9.24,3.09,16.28q4-1.32,8.08-2.32a9.22,9.22,0,0,1,1.4-1.11c-0.13.3-.24,0.58-0.35,0.86l2-.45c3.18-7.25,7.59-8.33,7.59-8.33a38.1,38.1,0,0,0-1.23,7.18q4.63-.68,9.4-1a67.45,67.45,0,0,1,5.69-4.9,70.12,70.12,0,0,1,5.75,4.88q4.86,0.25,9.59,1a37.5,37.5,0,0,0-1.22-7.15s4.42,1.07,7.61,8.29l2.07,0.45c-0.1-.27-0.21-0.54-0.33-0.82a11.82,11.82,0,0,1,1.2,1q4.22,1,8.29,2.37c0.39-7,2.2-11.91,3.09-16.24,1.74-8.45.15-14.84,0-18.31a1,1,0,0,1,1-1.07m0-9a10,10,0,0,0-10,10.34c0,1.22.18,2.48,0.33,3.81a37.45,37.45,0,0,1-.19,12.42c-0.21,1-.51,2.19-0.83,3.43l-0.36,1.42c-4.19-5.22-8.71-6.59-9.81-6.86a9,9,0,0,0-9.65,3.8l-0.61-.47-0.28-.22a9,9,0,0,0-11.44,0l-0.25.2-0.44.35a9,9,0,0,0-9.57-3.67c-1.09.27-5.56,1.63-9.72,6.8L99.61,39c-0.32-1.24-.62-2.41-0.82-3.42a37.41,37.41,0,0,1-.19-12.41c0.15-1.33.29-2.59,0.33-3.82a10,10,0,0,0-15.2-8.9C65.63,21.37,56.55,38.75,57.44,60.78q0,0.88,0,1.78a113,113,0,1,0,136.91-.08q0-.86,0-1.71c0.89-22-8.19-39.41-26.28-50.28a10,10,0,0,0-5.16-1.43h0Z"/><path d="M125.58,261A108.65,108.65,0,1,1,234.23,152.32,108.77,108.77,0,0,1,125.58,261Zm0-212.66a104,104,0,1,0,104,104A104.13,104.13,0,0,0,125.58,48.31Z"/><path class="cls-2" d="M97.33,165.24l0-.08Z"/><g class="cls-4"><path class="cls-2" d="M183.69,160.55c-15.85-17.33-10.5-26.54-10.5-26.54l7.58,0.48c-11.57-7.39-9.08-14.74-9.08-14.74,12.38-7.47,14-26.17,14-26.17-7.89,7.5-8.75-.39-8.75-0.39,6.9-13.65,8.78-24.3,8.33-32.38,0.69-14.78-3.56-31.57-21.91-42.6a1,1,0,0,0-1.57.92c0.1,3.47,1.69,9.86,0,18.31-1.46,7.12-5.42,15.69-1.46,32.87-3.76-14.85-11.12-20-11.12-20,2.7,6.17.69,8.81,0.69,8.81-2.51-14.92-10-16.73-10-16.73,3.41,13-1,16.95-1,16.95-2.07-7.63-12.1-14.79-13.1-15.62-1,.83-10.85,8-12.92,15.62,0,0-4.35-4-.93-16.95,0,0-7.48,1.81-10,16.73,0,0-2-2.64.71-8.81,0,0-6.87,4-11.11,20,4-17.18,0-25.75-1.45-32.87-1.74-8.45-.14-14.84,0-18.31a1,1,0,0,0-1.57-.92C70,29.24,65.76,46,66.45,60.81,66,68.89,67.88,79.54,74.77,93.19c0,0-.86,7.89-8.75.39,0,0,1.59,18.7,14,26.17,0,0,2.49,7.35-9.08,14.74L78.5,134s5.35,9.21-10.5,26.54c0,0,15.87-5.2,16.37-10,0,3.45-.6,22.9-13.28,35.43,0,0,9.58-1.2,14.21-7.81a81.26,81.26,0,0,0-7.05,33.42s7.23-7.71,8.7-7.89-1.37,1.93-1.37,1.93-9.5,10.95-9.26,29.37c0,0,1.56-7.68,7.82-5.45,0,0,1.58,9.51-8.21,35.64l49.73-6,49.91,6c-9.79-26.13-8-35.64-8-35.64,6.26-2.23,7.82,5.45,7.82,5.45,0.25-18.43-9.26-29.37-9.26-29.37s-2.85-2.11-1.37-1.93,8.7,7.89,8.7,7.89a81.26,81.26,0,0,0-7.05-33.42c4.63,6.61,14.21,7.81,14.21,7.81-12.67-12.53-13.25-32-13.28-35.43C167.82,155.36,183.69,160.55,183.69,160.55Z"/><path class="cls-5" d="M125.33,259.15V43.68c1,0.83,11.19,8,13.26,15.62,0,0,4.52-4,1.11-16.95,0,0,7.57,1.81,10.07,16.73,0,0,2-2.64-.67-8.81,0,0,6.38,6.17,11.13,20-4-17.18,0-25.75,1.47-32.87,1.74-8.45.15-14.84,0-18.31a1,1,0,0,1,1.57-.92c18.35,11,22.6,27.83,21.91,42.6,0.46,8.08-1.43,18.73-8.33,32.38,0,0,.86,7.89,8.75.39,0,0-1.59,18.7-14,26.17,0,0-2.49,7.35,9.08,14.74l-7.58-.48s-5.35,9.21,10.5,26.54c0,0-15.87-5.2-16.37-10,0,3.45.6,22.9,13.28,35.43,0,0-9.58-1.2-14.21-7.81a81.26,81.26,0,0,1,7.05,33.42s-7.23-7.71-8.7-7.89,1.37,1.93,1.37,1.93,9.5,10.95,9.26,29.37c0,0-1.56-7.68-7.82-5.45,0,0-1.92,9.51,7.87,35.64Z"/><path class="cls-5" d="M74.77,83.67c-2.12-5.72-14.65-42.41,7.39-56.3a0.41,0.41,0,0,1,.6.45c-0.65,4.61-3.39,25.83-.18,36.07a0.42,0.42,0,0,1-.6.52c-1.11-.85-3-3.57-4.71-12.2a0.4,0.4,0,0,0-.8.07c-0.14,4.07.75,11.41,2.8,15.78a0.42,0.42,0,0,1-.64.52,24.44,24.44,0,0,1-3.5-4.82,0.4,0.4,0,0,0-.74.28c0.21,1.79,1,5.45,3.54,12.7a0.52,0.52,0,0,1,0,.19,17.29,17.29,0,0,1-2.49,6.81A0.39,0.39,0,0,1,74.77,83.67Z"/><path class="cls-5" d="M177.08,83.67c2.12-5.72,14.65-42.41-7.39-56.3a0.41,0.41,0,0,0-.6.45c0.65,4.61,3.39,25.83.18,36.07a0.42,0.42,0,0,0,.6.52c1.11-.85,3-3.57,4.71-12.2a0.4,0.4,0,0,1,.8.07c0.14,4.07-.75,11.41-2.8,15.78a0.42,0.42,0,0,0,.64.52,24.44,24.44,0,0,0,3.5-4.82,0.4,0.4,0,0,1,.74.28c-0.21,1.79-1,5.45-3.54,12.7a0.52,0.52,0,0,0,0,.19,17.29,17.29,0,0,0,2.49,6.81A0.39,0.39,0,0,0,177.08,83.67Z"/><path d="M125.66,179.23c-3,1.72-8.26,5.84-16.51-1.84a21.23,21.23,0,0,0,33,0C133.92,185.07,128.66,181,125.66,179.23Z"/><path class="cls-5" d="M104.46,215.56L97,220c5.77-22.4,1.11-30.59.58-31.41,0.69,1,9.3,13.8,25.51,13.26a12.25,12.25,0,0,0,2.23-.18v61.27l-50.27,7.29-0.56-5.09C105,244.92,104.46,215.56,104.46,215.56Z"/><path class="cls-5" d="M146.68,215.56l7.45,4.4c-5.77-22.4-1.11-30.59-.58-31.41-0.69,1-9.54,13.8-25.74,13.26a16,16,0,0,1-2.47-.18v61.27l50.51,7.29,0.67-5.09C146.05,244.92,146.68,215.56,146.68,215.56Z"/><path d="M134.68,154.08c-3.51-3.92-7.62,7.71-7.62,7.71a2,2,0,0,1-1.39,1.52,2.33,2.33,0,0,1-1.29-1.52s-4-11.63-7.52-7.71-6.21,1.79-6.21,1.79c2.1,7,13.54,9.36,13.54,9.36l1.1,10.58,0.38-.09,0.48,0.09,1.15-10.58s11.47-2.39,13.57-9.36C140.86,155.87,138.19,158,134.68,154.08Z"/><path d="M162.8,18.06a1,1,0,0,1,.52.15c18.35,11,22.6,27.83,21.91,42.6,0.46,8.08-1.43,18.73-8.33,32.38,0,0,.39,3.62,3.11,3.62,1.29,0,3.1-.82,5.64-3.24,0,0-1.59,18.7-14,26.17,0,0-2.49,7.35,9.08,14.74l-7.58-.48s-5.35,9.21,10.5,26.54c0,0-15.87-5.2-16.37-10,0,3.45.6,22.9,13.28,35.43,0,0-9.58-1.2-14.21-7.81a81.26,81.26,0,0,1,7.05,33.42s-7.23-7.71-8.7-7.89h-0.16c-1.09,0,1.53,1.94,1.53,1.94s9.5,10.95,9.26,29.37c0,0-1.19-5.85-5.66-5.85a6.43,6.43,0,0,0-2.16.41s-1.76,9.51,8,35.64l-49.91-6-49.73,6c9.79-26.13,8.21-35.64,8.21-35.64a6.43,6.43,0,0,0-2.16-.41c-4.47,0-5.66,5.85-5.66,5.85-0.25-18.43,9.26-29.37,9.26-29.37s2.62-1.94,1.53-1.94H87c-1.47.18-8.7,7.89-8.7,7.89a81.26,81.26,0,0,1,7.05-33.42C80.67,184.76,71.09,186,71.09,186c12.67-12.53,13.25-32,13.28-35.43-0.5,4.82-16.37,10-16.37,10C83.85,143.22,78.5,134,78.5,134l-7.58.48C82.49,127.1,80,119.76,80,119.76c-12.38-7.47-14-26.17-14-26.17,2.54,2.42,4.36,3.24,5.64,3.24,2.71,0,3.11-3.62,3.11-3.62-6.9-13.65-8.78-24.3-8.33-32.38C65.76,46,70,29.24,88.36,18.21a1,1,0,0,1,.52-0.15,1,1,0,0,1,1,1.07c-0.1,3.47-1.7,9.86,0,18.31,1.46,7.12,5.41,15.69,1.45,32.87,4.24-16,11.11-20,11.11-20-2.7,6.17-.71,8.81-0.71,8.81,2.51-14.92,10-16.73,10-16.73-3.41,13,.93,16.95.93,16.95,2.07-7.63,11.92-14.79,12.92-15.62,1,0.83,11,8,13.1,15.62,0,0,4.44-4,1-16.95,0,0,7.53,1.81,10,16.73,0,0,2-2.64-.69-8.81,0,0,7.37,5.18,11.12,20-4-17.18,0-25.75,1.46-32.87,1.74-8.45.15-14.84,0-18.31a1,1,0,0,1,1-1.07m0-5h0a6.09,6.09,0,0,0-4.34,1.84,6,6,0,0,0-1.7,4.38c0,1.06.16,2.18,0.3,3.48a41.43,41.43,0,0,1-.25,13.67c-0.23,1.11-.54,2.33-0.88,3.63a82,82,0,0,0-1.75,8A17.69,17.69,0,0,0,152,46.19a5,5,0,0,0-1.71-.77c-3.88-6.38-8.6-7.74-9.35-7.92a5,5,0,0,0-6,6.13q0.25,1,.44,1.84a67.94,67.94,0,0,0-6.19-5.37l-0.35-.27a5,5,0,0,0-6.39,0l-0.31.24a67.86,67.86,0,0,0-5.9,5.15q0.17-.77.39-1.6a5,5,0,0,0-6-6.13c-0.74.18-5.44,1.54-9.31,7.93A5,5,0,0,0,100,46a14.32,14.32,0,0,0-2.54,2c-0.48-3-1.15-5.62-1.74-7.92-0.33-1.29-.65-2.51-0.87-3.62a41.39,41.39,0,0,1-.24-13.66c0.15-1.3.27-2.43,0.3-3.49a6,6,0,0,0-1.7-4.38,6.09,6.09,0,0,0-4.34-1.84,6,6,0,0,0-3.1.86C69,24,60.56,40.23,61.44,60.79c-0.43,8.47,1.5,17.83,5.75,27.93A5,5,0,0,0,61,94c0.07,0.82,1.77,19.12,14.08,28.48-0.34,1.62-1.74,4.5-6.9,7.8a5,5,0,0,0,2.69,9.21h0.32l3.09-.2c-0.26,3.28-2.11,9.25-10,17.89a5,5,0,0,0,5.25,8.13A83.26,83.26,0,0,0,78,161.92c-1.43,6.53-4.38,14.48-10.45,20.49a5,5,0,0,0,4.14,8.52A28.09,28.09,0,0,0,75.9,190a82.82,82.82,0,0,0-2.65,21.64,5,5,0,0,0,1.47,3.46A54.86,54.86,0,0,0,71.33,235a5,5,0,0,0,4.58,5l0.43,0a5,5,0,0,0,1.95-.39,146.05,146.05,0,0,1-7,23.78,5,5,0,0,0,5.28,6.72l49.13-6,49.31,6a5,5,0,0,0,5.28-6.72,140,140,0,0,1-7-23.9,5,5,0,0,0,2.08.46l0.47,0a5,5,0,0,0,4.53-4.91,54.86,54.86,0,0,0-3.4-19.93,5,5,0,0,0,1.47-3.46A82.82,82.82,0,0,0,175.78,190a28.09,28.09,0,0,0,4.19.91,5,5,0,0,0,4.14-8.52c-6.07-6-9-14-10.45-20.49a83.26,83.26,0,0,0,8.47,3.38,5,5,0,0,0,5.25-8.13c-7.9-8.64-9.74-14.61-10-17.89l3.09,0.2h0.32a5,5,0,0,0,2.69-9.21c-5.16-3.3-6.55-6.19-6.9-7.8,12.31-9.35,14-27.66,14.08-28.48a5,5,0,0,0-6.15-5.29c4.25-10.1,6.18-19.46,5.75-27.93,0.88-20.56-7.53-36.76-24.34-46.87a6,6,0,0,0-3.1-.86h0Z"/><path d="M153.27,125.76s9.09-9.12,14.15-3.52c0,0-1.14,9.34-6.57,10.92S153.27,125.76,153.27,125.76Z"/><path d="M97.38,125.76s-9.09-9.12-14.15-3.52c0,0,1.14,9.34,6.57,10.92S97.38,125.76,97.38,125.76Z"/></g><path class="cls-6" d="M81.59,102.36a116.78,116.78,0,0,1,22.19,2c3.55,0.69,7.07,1.54,10.6,2.38a46,46,0,0,0,17.88,1c3.19-.5,6.34-1.25,9.48-2a112.55,112.55,0,0,1,28.55-3,131.24,131.24,0,0,1,19.48,1.81c3.06,0.51,6.08,1.19,9.12,1.82,1.1,0.23,1.26.41,1.24,1.55,0,2-.1,4.09-0.16,6.13a2,2,0,0,1-.74,1.46,8.28,8.28,0,0,0-1.41,1.72,13.19,13.19,0,0,0-1.59,3.8c-0.91,3.62-1.77,7.26-2.82,10.84A58.65,58.65,0,0,1,188.3,144a18.8,18.8,0,0,1-11.15,8.88,40.78,40.78,0,0,1-15.69,1.62,41.49,41.49,0,0,1-8.93-1.66,21.16,21.16,0,0,1-12.38-9.65A99.53,99.53,0,0,1,133,129.11c-0.78-1.93-1.49-3.88-2.17-5.84a4.67,4.67,0,0,1-.16-1.66c0-.6.18-1.19,0.25-1.78a1.64,1.64,0,0,0-1.17-1.93,10.68,10.68,0,0,0-3.89-.52c-1,0-1.95.06-2.92,0.13a4.37,4.37,0,0,0-1.22.29,1.62,1.62,0,0,0-1.1,1.76c0,0.78.16,1.55,0.18,2.33a3.34,3.34,0,0,1-.17,1.29c-1.11,2.81-2.16,5.64-3.42,8.39a80.53,80.53,0,0,1-7.37,13,22,22,0,0,1-14.09,8.94,46.35,46.35,0,0,1-15.21.68,33,33,0,0,1-9.8-2.6,18,18,0,0,1-8.69-8.46,72.52,72.52,0,0,1-6-16.78c-0.57-2.5-1.24-5-2-7.43a8.46,8.46,0,0,0-2.71-4.25,1.38,1.38,0,0,1-.44-0.93q-0.08-3.43-.06-6.86a0.94,0.94,0,0,1,1-1.16c2.21-.45,4.42-0.89,6.65-1.26a150.75,150.75,0,0,1,17.32-1.93C77.76,102.47,79.67,102.43,81.59,102.36Z"/><path class="cls-7" d="M59.24,118.77a9.13,9.13,0,0,1,.11-5.41A9.34,9.34,0,0,1,63,108.71a13.07,13.07,0,0,1,7.07-2.1c9.75-.67,14.37-0.55,14.37-0.55,3.49,0.09,9.37.28,16.8,1.11a26,26,0,0,1,9.39,2.65c3.06,1.58,4.1,3,4.53,3.65a10.5,10.5,0,0,1,1.33,6.52c-0.1,1.94-.92,14.45-9.5,23.32a23.19,23.19,0,0,1-5,4,24.79,24.79,0,0,1-7.18,2.65,40.1,40.1,0,0,1-12.82.55c-6.13-.48-9.19-0.72-12.27-2.87-1.82-1.27-3.39-3-5.19-6.41C60.39,133.38,59.34,125,59.24,118.77Z"/><path class="cls-7" d="M191.77,118.77a9.13,9.13,0,0,0-.11-5.41,9.34,9.34,0,0,0-3.65-4.64,13.07,13.07,0,0,0-7.07-2.1c-9.75-.67-14.37-0.55-14.37-0.55-3.49.09-9.37,0.28-16.8,1.11a26,26,0,0,0-9.39,2.65c-3.06,1.58-4.1,3-4.53,3.65a10.5,10.5,0,0,0-1.33,6.52c0.1,1.94.92,14.45,9.5,23.32a23.19,23.19,0,0,0,5,4,24.79,24.79,0,0,0,7.18,2.65,40.1,40.1,0,0,0,12.82.55c6.13-.48,9.19-0.72,12.27-2.87,1.82-1.27,3.39-3,5.19-6.41C190.62,133.38,191.67,125,191.77,118.77Z"/><path class="cls-2" d="M57.11,109.94a2,2,0,0,1-3.63.22A2.18,2.18,0,0,1,57.11,109.94Z"/><path class="cls-2" d="M198.11,109.94a2,2,0,0,1-3.63.22A2.18,2.18,0,0,1,198.11,109.94Z"/></svg>